<?xml version="1.0" encoding="utf-8"?>
<!-- Generator: Adobe Illustrator 27.0.0, SVG Export Plug-In . SVG Version: 6.00 Build 0)  -->
<svg version="1.1" id="图层_1" xmlns="http://www.w3.org/2000/svg" xmlns:xlink="http://www.w3.org/1999/xlink" x="0px" y="0px"
	 viewBox="0 0 640 366.9" style="enable-background:new 0 0 640 366.9;" xml:space="preserve">
<style type="text/css">
	.st0{fill-rule:evenodd;clip-rule:evenodd;fill:#070707;stroke:#131211;}
	.st1{fill:none;stroke:#DD190C;}
	.st2{fill:none;stroke:#DD190C;stroke-width:0.7087;stroke-miterlimit:10;}
	.st3{fill-rule:evenodd;clip-rule:evenodd;fill:#FFFFFF;}
	.st4{fill:#060606;}
	.st5{fill-rule:evenodd;clip-rule:evenodd;fill:#DD0B0B;stroke:#DD190C;}
	.st6{fill-rule:evenodd;clip-rule:evenodd;fill:#0E0E0D;stroke:#0E0E0D;}
</style>
<g>
	<path class="st0" d="M339.7,4.1v232c-65.6,0-112.2-51.9-112.2-116.2C227.5,56,274.1,4.1,339.7,4.1z"/>
	<path class="st1" d="M446.6,148.3c-11.5,0-20-12-20-27.1c0-15.1,8.4-27.1,20-27.1"/>
	<path class="st2" d="M440.4,148.3c-11.5,0-20-12-20-27.1c0-15.1,8.4-27.1,20-27.1"/>
	<path class="st2" d="M434.2,148.3c-11.5,0-20-12-20-27.1c0-15.1,8.4-27.1,20-27.1"/>
	<path class="st2" d="M427.5,148.3c-11.5,0-20-12-20-27.1c0-15.1,8.4-27.1,20-27.1"/>
	<path class="st2" d="M421.3,148.3c-11.5,0-20-12-20-27.1c0-15.1,8.4-27.1,20-27.1"/>
	<path class="st2" d="M415.1,148.3c-11.5,0-20-12-20-27.1c0-15.1,8.4-27.1,20-27.1"/>
	<path class="st2" d="M408.9,148.3c-11.5,0-20-12-20-27.1c0-15.1,8.4-27.1,20-27.1"/>
	<path class="st2" d="M402.7,148.3c-11.5,0-20-12-20-27.1c0-15.1,8.4-27.1,20-27.1"/>
	<path class="st2" d="M396.1,148.3c-11.5,0-20-12-20-27.1c0-15.1,8.4-27.1,20-27.1"/>
	<path class="st2" d="M389.8,148.3c-11.5,0-20-12-20-27.1c0-15.1,8.4-27.1,20-27.1"/>
	<path class="st3" d="M391.6,185.5l-50.6,0.4l-41.2-32.4V86.2l41.2-31l51,0.4l-40.8,36.8c8,16.4,7.1,39-0.4,55.9L391.6,185.5z"/>
	<polygon class="st4" points="-0.5,217 14.6,217 14.6,265.4 119.3,265.4 119.3,217 134.8,217 134.8,331.9 119.3,331.9 119.3,279.1 
		14.6,279.1 14.6,331.9 -0.5,331.9 	"/>
	<path class="st4" d="M149.9,252.1h14.6l38.1,69.6h1.8l35.5-69.6h14.6L216,326.6c-4.4,8.9-8,15.1-10.6,19.1c-2.7,4-5.3,6.7-8.9,8.9
		c-3.1,2.2-6.2,3.5-9.8,4.4c-3.5,0.9-8.4,1.3-15.1,1.3c-2.7,0-5.3,0-7.1,0v-11.5c1.8,0,4,0.4,5.8,0.4c8.4,0,14.2-0.9,17.7-3.1
		c3.5-2.2,7.1-6.7,10.6-13.3h-4.4L149.9,252.1z"/>
	<path class="st4" d="M317.1,262.3c-15.5,0-25.7,1.3-30.6,4c-6.2,3.1-9.3,11.1-9.3,24.4c0,13.3,3.5,21.3,10.2,24.8
		c4,2.2,13.3,3.1,27.9,3.1c15.5,0,25.7-1.3,30.2-4c3.1-2.2,5.3-4.9,6.7-8.9c1.3-4,1.8-9.3,1.8-16.4c0-6.7-0.9-12-2.2-15.5
		c-1.3-3.5-4-6.2-7.5-8C339.3,263.1,330.4,262.3,317.1,262.3 M353.9,252.1h12.4v59.9c0,12.9-0.4,22.2-1.8,28.8
		c-1.3,6.2-4.4,11.1-9.3,14.6c-3.5,2.7-8,4-13.7,4.9c-5.8,0.9-15.1,1.3-27.9,1.3c-13.3,0-23.1-0.9-29.3-2.7
		c-6.2-1.8-11.1-4.9-14.2-8.9c-1.3-2.2-2.7-4-3.1-5.8s-0.9-4.9-0.9-8.4H279c0.4,3.1,0.9,5.3,1.8,6.7c0.9,1.8,2.2,3.1,4.4,4
		c4.4,2.7,13.3,4,27.1,4c12,0,20.4-0.4,25.7-1.8c5.3-0.9,9.3-3.1,11.5-5.8c1.8-2.2,2.7-4.9,3.5-8c0.4-3.1,0.9-8.9,1.3-16.9h-0.9
		c-3.5,4.4-7.5,7.1-12.4,8.4c-4.9,1.3-13.3,1.8-26.2,1.8c-10.6,0-19.1-0.4-24.8-1.3c-5.8-0.9-10.2-2.7-13.3-4.9
		c-4.4-3.1-7.5-7.5-9.3-12.9c-1.8-5.3-3.1-12-3.1-20.4c0-17.7,5.3-29.3,16-34.6c3.5-1.8,8-2.7,13.3-3.5c5.3-0.4,13.3-0.9,24-0.9
		c8.4,0,14.6,0.4,18.6,0.9c4,0.4,7.1,1.3,9.8,3.1c3.1,1.8,5.8,4.4,8,7.5h0.9L353.9,252.1z"/>
	<path class="st4" d="M437.3,262.3c-8.4,0-14.6,0.4-18.6,0.9c-4,0.4-7.5,1.8-10.2,3.5c-3.1,1.8-4.9,4.9-6.2,8.9
		c-1.3,4-1.8,9.8-1.8,16.9c0,8,0.9,14.2,2.7,18.2c1.8,4,4.9,7.1,9.3,8.4c4.9,1.8,14.2,2.7,27.9,2.7c8.9,0,15.5-0.4,20-0.9
		c4.4-0.9,7.5-1.8,10.2-4c2.7-1.8,4.9-4.9,5.8-8.9c1.3-4,1.8-9.3,1.8-16.4c0-8.4-0.9-14.6-2.7-18.6c-2.2-4.4-5.8-7.1-10.6-8.9
		C459,262.7,450.2,262.3,437.3,262.3 M435.1,250.7c12.4,0,21.7,0.4,27.5,1.3c5.8,0.9,10.6,2.2,13.7,4c4.9,3.1,8.4,7.5,10.6,12.9
		c2.2,5.8,3.1,13.3,3.1,22.6c0,10.6-1.3,18.6-4,24.4c-1.8,4-4.4,7.5-8,9.8c-3.1,2.2-7.5,4-12.9,5.3c-5.3,0.9-13.7,1.8-25.3,1.8
		c-11.1,0-19.5-0.4-25.3-1.3c-5.8-0.9-10.2-2.2-13.7-4c-5.3-2.7-8.9-7.1-11.5-12.9c-2.2-5.8-3.5-13.3-3.5-23.5
		c0-11.1,1.8-20,4.9-25.7c3.5-5.8,8-9.8,13.7-12C411.1,252.1,421.3,251.2,435.1,250.7z"/>
	<path class="st4" d="M556.6,295.5c-10.2,0-17.3,0-21.7,0.4c-4,0.4-7.1,0.9-8.9,2.2c-3.1,1.8-4.9,5.8-4.9,10.6
		c0,5.3,1.8,8.9,5.8,10.6c3.1,1.3,13.7,2.2,31.9,2.2c13.3,0,22.2-0.9,26.2-2.7c4.4-1.8,6.2-5.3,6.2-10.6c0-5.3-2.2-8.9-7.1-10.6
		C580.1,296.4,570.4,295.5,556.6,295.5 M524.7,276h-12.9c0-1.3,0-2.7,0-3.5c0-8.4,3.1-14.2,9.3-17.3c6.2-3.1,17.7-4.4,35-4.4
		c13.3,0,23.1,0.4,28.8,1.8c5.8,1.3,10.6,3.5,13.7,7.1c2.7,2.7,4.4,6.2,5.3,9.8c0.9,4,1.3,10.6,1.3,20v42.1H593l0.4-9.3h-0.9
		c-3.1,4.4-6.7,7.1-11.1,8.4s-12.4,1.8-24.8,1.8c-13.7,0-23.5-0.4-28.8-0.9c-5.3-0.9-9.3-2.2-12.4-4.4c-2.7-2.2-4.9-4.4-5.8-7.1
		c-0.9-2.7-1.8-6.7-1.8-12c0-6.2,0.9-11.1,2.7-14.2c1.8-3.1,4.4-5.8,8.4-7.5c4-1.8,14.2-2.7,29.7-2.7c16.4,0,26.6,0.4,31.9,1.3
		c4.9,0.9,8.9,3.5,11.5,7.1h0.9v-8.4c0-7.1-1.3-12-3.5-15.1c-2.2-2.7-5.8-4.4-10.2-5.8c-4.4-0.9-12-1.3-22.2-1.3
		c-13.3,0-22.2,0.9-26.2,2.2c-4,1.8-5.8,5.3-5.8,10.6C524.7,275.1,524.7,275.6,524.7,276z"/>
	<rect x="627.1" y="217" class="st4" width="12.4" height="115.3"/>
	<path class="st5" d="M344.2,93.7c16,28.4,0,54.1,0,54.1h-36.8V93.7H344.2z"/>
	<path class="st6" d="M341.5,62.7h32.4h1.3c-5.3,9.8-16.9,16.9-27.5,24c-0.4,0-0.4,0-0.4,0H310l31-24
		C341.1,62.7,341.5,62.7,341.5,62.7z"/>
	<path class="st6" d="M341.5,177.5h32.4h1.3c-5.3-9.8-16.9-16.9-27.5-24c-0.4,0-0.4,0-0.4,0H310l31,24
		C341.1,177.5,341.5,177.5,341.5,177.5z"/>
</g>
</svg>
